<?xml version="1.0" encoding="UTF-8"?>
<!DOCTYPE svg PUBLIC "-//W3C//DTD SVG 1.1//EN" "http://www.w3.org/Graphics/SVG/1.1/DTD/svg11.dtd">
<svg xmlns="http://www.w3.org/2000/svg" version="1.1" width="495px" height="504px" style="shape-rendering:geometricPrecision; text-rendering:geometricPrecision; image-rendering:optimizeQuality; fill-rule:evenodd; clip-rule:evenodd" xmlns:xlink="http://www.w3.org/1999/xlink">
<g><path style="opacity:0.078" fill="#8a888b" d="M 232.5,3.5 C 226.406,5.09434 220.072,5.76101 213.5,5.5C 217.968,4.82589 222.468,3.82589 227,2.5C 228.699,3.40609 230.533,3.73943 232.5,3.5 Z"/></g>
<g><path style="opacity:0.616" fill="#929090" d="M 213.5,5.5 C 213.389,6.11742 213.056,6.61742 212.5,7C 208.848,7.49863 205.182,7.6653 201.5,7.5C 205.358,6.70634 209.358,6.03968 213.5,5.5 Z"/></g>
<g><path style="opacity:0.537" fill="#868686" d="M 293.5,6.5 C 296.928,7.50997 300.261,8.50997 303.5,9.5C 300.781,9.60255 298.115,9.26922 295.5,8.5C 294.287,8.25284 293.62,7.58617 293.5,6.5 Z"/></g>
<g><path style="opacity:0.024" fill="#bab3b3" d="M 192.5,9.5 C 194.607,8.53178 196.941,8.19845 199.5,8.5C 197.406,10.3751 195.072,10.7084 192.5,9.5 Z"/></g>
<g><path style="opacity:0.792" fill="#626161" d="M 192.5,9.5 C 190.383,11.6545 187.716,12.6545 184.5,12.5C 186.848,10.9028 189.514,9.90277 192.5,9.5 Z"/></g>
<g><path style="opacity:0.094" fill="#acabac" d="M 182.5,12.5 C 181.713,14.1042 180.38,14.7709 178.5,14.5C 179.514,13.3263 180.847,12.6596 182.5,12.5 Z"/></g>
<g><path style="opacity:0.471" fill="#888685" d="M 177.5,14.5 C 177.027,15.9063 176.027,16.573 174.5,16.5C 174.973,15.0937 175.973,14.427 177.5,14.5 Z"/></g>
<g><path style="opacity:1" fill="#fbe167" d="M 272.5,16.5 C 285.228,21.6096 298.228,26.2762 311.5,30.5C 314.311,30.8257 316.978,31.6591 319.5,33C 326.325,37.6646 332.991,42.4979 339.5,47.5C 340.028,48.7206 340.695,49.8873 341.5,51C 343.676,51.1629 345.509,51.9963 347,53.5C 347.217,58.5527 347.717,63.5527 348.5,68.5C 344.533,69.9471 343.533,72.6138 345.5,76.5C 347.045,77.4519 348.712,77.7852 350.5,77.5C 350.5,75.1667 350.5,72.8333 350.5,70.5C 352.342,70.7233 354.175,71.0566 356,71.5C 357.376,71.3158 358.209,70.6491 358.5,69.5C 360.527,69.3379 362.527,69.5045 364.5,70C 367.361,74.194 370.861,77.694 375,80.5C 378.52,87.6854 383.187,94.0188 389,99.5C 393.708,109.054 398.708,118.387 404,127.5C 411.71,148.087 415.877,169.421 416.5,191.5C 418.017,216.809 419.684,242.142 421.5,267.5C 420.019,271.41 419.519,275.41 420,279.5C 421.194,277.377 421.86,275.043 422,272.5C 422.079,276.358 422.746,280.024 424,283.5C 425.508,295.619 426.675,307.619 427.5,319.5C 429.226,332.651 430.559,345.984 431.5,359.5C 431.527,366.579 430.861,373.579 429.5,380.5C 429.524,384.787 428.19,388.453 425.5,391.5C 425.19,390.262 424.69,390.262 424,391.5C 406.158,418.35 381.324,434.184 349.5,439C 316.553,442.492 283.553,443.159 250.5,441C 222.913,436.135 195.58,430.135 168.5,423C 157.623,419.227 147.29,414.394 137.5,408.5C 107.931,381.724 93.0973,348.057 93,307.5C 91.0096,304.278 88.5096,303.778 85.5,306C 80.8044,311.359 76.1377,316.692 71.5,322C 64.5176,325.908 57.1842,326.574 49.5,324C 40.0288,318.859 32.8621,311.359 28,301.5C 26.6779,295.735 25.8446,289.901 25.5,284C 26.7733,276.407 28.4399,268.907 30.5,261.5C 30.5,259.5 30.5,257.5 30.5,255.5C 32.8917,250.522 35.3917,245.522 38,240.5C 45.2888,230.876 52.9555,221.542 61,212.5C 64.1695,205.575 65.3362,198.241 64.5,190.5C 66.2105,186.119 66.8772,181.453 66.5,176.5C 67.6571,169.271 68.8238,161.938 70,154.5C 70.5662,152.277 71.3995,150.277 72.5,148.5C 75.6208,141.876 78.6208,134.876 81.5,127.5C 82.8411,122.823 84.1745,118.156 85.5,113.5C 85.5,113.167 85.5,112.833 85.5,112.5C 88.7923,109.54 90.7923,105.874 91.5,101.5C 93.7334,96.7464 96.2334,92.0798 99,87.5C 101.395,83.4139 104.229,79.7473 107.5,76.5C 113.281,71.5509 118.614,66.0509 123.5,60C 124.448,59.5172 125.448,59.3505 126.5,59.5C 127.767,56.2331 130.1,53.8997 133.5,52.5C 136.151,51.5103 138.817,50.5103 141.5,49.5C 144.082,46.6666 146.749,44 149.5,41.5C 152.522,38.986 155.856,36.8193 159.5,35C 161.909,33.2932 164.575,32.4598 167.5,32.5C 173.652,30.5476 179.985,29.381 186.5,29C 186.167,28.6667 185.833,28.3333 185.5,28C 187.577,27.8078 189.577,27.3078 191.5,26.5C 191.291,25.914 190.957,25.414 190.5,25C 195.794,24.5449 200.794,23.2116 205.5,21C 212.833,20.3333 220.167,19.6667 227.5,19C 228.672,18.5814 229.672,17.9147 230.5,17C 244.496,16.5001 258.496,16.3334 272.5,16.5 Z"/></g>
<g><path style="opacity:0.502" fill="#8e8d8e" d="M 166.5,18.5 C 166.179,20.0481 165.179,20.7148 163.5,20.5C 164.29,19.5987 165.29,18.9321 166.5,18.5 Z"/></g>
<g><path style="opacity:0.255" fill="#8e8a8c" d="M 163.5,20.5 C 162.713,22.1042 161.38,22.7709 159.5,22.5C 160.514,21.3263 161.847,20.6596 163.5,20.5 Z"/></g>
<g><path style="opacity:0.031" fill="#a7a7a6" d="M 330.5,20.5 C 332.434,21.1103 334.101,22.1103 335.5,23.5C 333.067,23.7271 331.401,22.7271 330.5,20.5 Z"/></g>
<g><path style="opacity:0.141" fill="#a8a5a7" d="M 159.5,22.5 C 157.68,24.4484 155.346,25.4484 152.5,25.5C 154.509,23.9348 156.843,22.9348 159.5,22.5 Z"/></g>
<g><path style="opacity:0.173" fill="#a2a2a2" d="M 335.5,23.5 C 337.632,23.5544 338.965,24.5544 339.5,26.5C 337.77,25.9744 336.436,24.9744 335.5,23.5 Z"/></g>
<g><path style="opacity:0.29" fill="#b3b1b3" d="M 152.5,25.5 C 152.027,26.9063 151.027,27.573 149.5,27.5C 149.973,26.0937 150.973,25.427 152.5,25.5 Z"/></g>
<g><path style="opacity:0.58" fill="#7c7b79" d="M 348.5,31.5 C 350.434,32.1103 352.101,33.1103 353.5,34.5C 351.011,34.7593 349.344,33.7593 348.5,31.5 Z"/></g>
<g><path style="opacity:0.973" fill="#5a5959" d="M 144.5,30.5 C 144.179,32.0481 143.179,32.7148 141.5,32.5C 141.5,33.5 141.5,34.5 141.5,35.5C 139.833,35.5 138.167,35.5 136.5,35.5C 138.84,33.3856 141.507,31.7189 144.5,30.5 Z"/></g>
<g><path style="opacity:0.129" fill="#b0b0ac" d="M 136.5,35.5 C 136.027,36.9063 135.027,37.573 133.5,37.5C 133.973,36.0937 134.973,35.427 136.5,35.5 Z"/></g>
<g><path style="opacity:0.231" fill="#8d8d8c" d="M 133.5,37.5 C 133.027,38.9063 132.027,39.573 130.5,39.5C 130.973,38.0937 131.973,37.427 133.5,37.5 Z"/></g>
<g><path style="opacity:0.043" fill="#aeaeae" d="M 358.5,38.5 C 360.19,38.8564 361.19,39.8564 361.5,41.5C 359.81,41.1436 358.81,40.1436 358.5,38.5 Z"/></g>
<g><path style="opacity:0.455" fill="#959595" d="M 127.5,41.5 C 126.461,43.5311 124.795,44.8645 122.5,45.5C 123.579,43.457 125.246,42.1237 127.5,41.5 Z"/></g>
<g><path style="opacity:0.965" fill="#5f5e5e" d="M 362.5,41.5 C 364.389,42.604 366.055,43.9373 367.5,45.5C 364.454,45.8174 362.787,44.4841 362.5,41.5 Z"/></g>
<g><path style="opacity:0.431" fill="#929292" d="M 122.5,45.5 C 122.5,47.5 121.5,48.5 119.5,48.5C 120.167,47.1667 121.167,46.1667 122.5,45.5 Z"/></g>
<g><path style="opacity:0.443" fill="#8c8888" d="M 117.5,50.5 C 117.027,51.9063 116.027,52.573 114.5,52.5C 114.973,51.0937 115.973,50.427 117.5,50.5 Z"/></g>
<g><path style="opacity:0.949" fill="#5c5b5c" d="M 376.5,54.5 C 378.5,55.8333 380.167,57.5 381.5,59.5C 380.167,59.5 378.833,59.5 377.5,59.5C 377.371,57.7839 377.038,56.1172 376.5,54.5 Z"/></g>
<g><path style="opacity:1" fill="#f3f4d1" d="M 331.5,35.5 C 335.531,36.5744 339.198,38.4077 342.5,41C 380.094,68.4143 404.761,104.581 416.5,149.5C 416.998,152.487 417.498,155.487 418,158.5C 418.383,159.056 418.883,159.389 419.5,159.5C 422.828,178.604 425.828,197.77 428.5,217C 428.133,228.397 428.133,239.897 428.5,251.5C 430.577,254.636 430.91,257.969 429.5,261.5C 431.834,287.234 433.668,312.9 435,338.5C 435.667,352.5 435.667,366.5 435,380.5C 431.052,395.605 423.219,408.272 411.5,418.5C 414.167,414.167 416.833,409.833 419.5,405.5C 420.925,400.548 422.925,395.881 425.5,391.5C 428.19,388.453 429.524,384.787 429.5,380.5C 430.232,379.192 431.066,377.858 432,376.5C 432.167,371.667 432.333,366.833 432.5,362C 430.956,337.201 430.122,312.368 430,287.5C 429.562,284.624 428.562,281.957 427,279.5C 426.319,275.798 426.485,272.131 427.5,268.5C 426.936,266.181 426.436,263.847 426,261.5C 425.667,262.167 425.333,262.833 425,263.5C 424.667,259.167 424.333,254.833 424,250.5C 423.768,249.263 423.268,248.263 422.5,247.5C 420.829,228.662 418.829,209.996 416.5,191.5C 415.877,169.421 411.71,148.087 404,127.5C 398.708,118.387 393.708,109.054 389,99.5C 383.187,94.0188 378.52,87.6854 375,80.5C 370.861,77.694 367.361,74.194 364.5,70C 362.527,69.5045 360.527,69.3379 358.5,69.5C 354.168,69.6732 351.334,67.6732 350,63.5C 349.667,59.8333 349.333,56.1667 349,52.5C 346.625,50.4796 344.125,48.8129 341.5,47.5C 340.5,44.0028 338.167,42.1694 334.5,42C 332.983,40.3149 331.316,38.8149 329.5,37.5C 329.855,36.4777 330.522,35.811 331.5,35.5 Z"/></g>
<g><path style="opacity:0.341" fill="#929091" d="M 385.5,64.5 C 386.906,64.9731 387.573,65.9731 387.5,67.5C 386.094,67.0269 385.427,66.0269 385.5,64.5 Z"/></g>
<g><path style="opacity:1" fill="#f9ea94" d="M 339.5,47.5 C 340.167,47.5 340.833,47.5 341.5,47.5C 344.125,48.8129 346.625,50.4796 349,52.5C 349.333,56.1667 349.667,59.8333 350,63.5C 351.334,67.6732 354.168,69.6732 358.5,69.5C 358.209,70.6491 357.376,71.3158 356,71.5C 354.175,71.0566 352.342,70.7233 350.5,70.5C 350.5,72.8333 350.5,75.1667 350.5,77.5C 348.712,77.7852 347.045,77.4519 345.5,76.5C 343.533,72.6138 344.533,69.9471 348.5,68.5C 347.717,63.5527 347.217,58.5527 347,53.5C 345.509,51.9963 343.676,51.1629 341.5,51C 340.695,49.8873 340.028,48.7206 339.5,47.5 Z"/></g>
<g><path style="opacity:0.357" fill="#989898" d="M 389.5,69.5 C 391.262,70.2623 392.262,71.5956 392.5,73.5C 390.738,72.7377 389.738,71.4044 389.5,69.5 Z"/></g>
<g><path style="opacity:0.816" fill="#7d7c7d" d="M 100.5,67.5 C 100.5,67.8333 100.5,68.1667 100.5,68.5C 99.5416,68.9528 98.7083,69.6195 98,70.5C 96.8822,72.7654 96.0488,75.0987 95.5,77.5C 93.4862,77.3915 91.8195,78.0582 90.5,79.5C 93.2016,76.6089 95.3682,73.2756 97,69.5C 97.8159,68.1772 98.9826,67.5106 100.5,67.5 Z"/></g>
<g><path style="opacity:0.129" fill="#a6a3a3" d="M 394.5,76.5 C 395.906,76.9731 396.573,77.9731 396.5,79.5C 395.094,79.0269 394.427,78.0269 394.5,76.5 Z"/></g>
<g><path style="opacity:0.263" fill="#838385" d="M 89.5,81.5 C 89.573,83.0269 88.9063,84.0269 87.5,84.5C 87.427,82.9731 88.0937,81.9731 89.5,81.5 Z"/></g>
<g><path style="opacity:0.129" fill="#9f9f9f" d="M 399.5,83.5 C 400.906,83.9731 401.573,84.9731 401.5,86.5C 400.094,86.0269 399.427,85.0269 399.5,83.5 Z"/></g>
<g><path style="opacity:0.22" fill="#aaaaaa" d="M 401.5,86.5 C 402.906,86.9731 403.573,87.9731 403.5,89.5C 402.094,89.0269 401.427,88.0269 401.5,86.5 Z"/></g>
<g><path style="opacity:0.863" fill="#666469" d="M 80.5,95.5 C 80.2939,98.2384 79.2939,100.572 77.5,102.5C 77.7061,99.7616 78.7061,97.4282 80.5,95.5 Z"/></g>
<g><path style="opacity:0.998" fill="#0f0e0d" d="M 293.5,6.5 C 293.62,7.58617 294.287,8.25284 295.5,8.5C 298.115,9.26922 300.781,9.60255 303.5,9.5C 312.944,12.2005 321.944,15.8671 330.5,20.5C 331.401,22.7271 333.067,23.7271 335.5,23.5C 336.436,24.9744 337.77,25.9744 339.5,26.5C 342.948,27.3901 345.948,29.0568 348.5,31.5C 349.344,33.7593 351.011,34.7593 353.5,34.5C 355.389,35.604 357.055,36.9373 358.5,38.5C 358.81,40.1436 359.81,41.1436 361.5,41.5C 361.833,41.5 362.167,41.5 362.5,41.5C 362.787,44.4841 364.454,45.8174 367.5,45.5C 370.728,48.3063 373.728,51.3063 376.5,54.5C 377.038,56.1172 377.371,57.7839 377.5,59.5C 378.833,59.5 380.167,59.5 381.5,59.5C 382.803,61.1423 384.136,62.8089 385.5,64.5C 385.427,66.0269 386.094,67.0269 387.5,67.5C 388.833,67.5 389.5,68.1667 389.5,69.5C 389.738,71.4044 390.738,72.7377 392.5,73.5C 393.906,73.9731 394.573,74.9731 394.5,76.5C 394.427,78.0269 395.094,79.0269 396.5,79.5C 397.878,80.5451 398.878,81.8784 399.5,83.5C 399.427,85.0269 400.094,86.0269 401.5,86.5C 401.427,88.0269 402.094,89.0269 403.5,89.5C 407.654,96.4691 411.821,103.469 416,110.5C 415.229,112.18 415.395,113.847 416.5,115.5C 416.769,118.015 417.769,120.015 419.5,121.5C 421.205,124.261 422.538,127.261 423.5,130.5C 423.338,132.527 423.505,134.527 424,136.5C 424.383,137.056 424.883,137.389 425.5,137.5C 430.623,152.779 433.956,168.446 435.5,184.5C 435.253,187.939 435.586,191.272 436.5,194.5C 437.723,199.757 439.389,204.757 441.5,209.5C 441.427,211.027 442.094,212.027 443.5,212.5C 443.833,213.5 444.5,214.167 445.5,214.5C 445.241,216.989 446.241,218.656 448.5,219.5C 451.878,222.876 454.878,226.543 457.5,230.5C 456.908,233.631 457.908,235.964 460.5,237.5C 461.167,237.5 461.5,237.833 461.5,238.5C 462.169,241.849 463.836,244.516 466.5,246.5C 467.338,246.842 467.672,247.508 467.5,248.5C 467.66,250.153 468.326,251.486 469.5,252.5C 471.625,255.088 472.958,258.088 473.5,261.5C 473.427,263.027 474.094,264.027 475.5,264.5C 476.338,264.842 476.672,265.508 476.5,266.5C 476.166,269.491 477.166,271.824 479.5,273.5C 481.208,277.37 482.541,281.37 483.5,285.5C 483.229,287.38 483.896,288.713 485.5,289.5C 485.5,289.833 485.5,290.167 485.5,290.5C 485.054,293.01 485.72,295.01 487.5,296.5C 487.5,296.833 487.5,297.167 487.5,297.5C 487.656,302.471 488.656,307.138 490.5,311.5C 491.839,318.462 491.506,325.462 489.5,332.5C 487.926,334.102 487.259,336.102 487.5,338.5C 485.6,342.732 482.933,346.399 479.5,349.5C 477.62,349.229 476.287,349.896 475.5,351.5C 472.118,353.066 468.451,354.066 464.5,354.5C 459.161,354.056 453.661,353.056 448,351.5C 447.502,354.817 447.335,358.15 447.5,361.5C 446.614,368.457 446.28,375.457 446.5,382.5C 445.993,386.083 444.993,389.417 443.5,392.5C 442.761,392.369 442.094,392.536 441.5,393C 442.252,393.671 442.586,394.504 442.5,395.5C 442.443,396.609 442.11,397.609 441.5,398.5C 438.916,399.048 437.916,400.715 438.5,403.5C 435.414,410.604 431.08,416.937 425.5,422.5C 424.448,422.351 423.448,422.517 422.5,423C 420.232,425.418 418.232,427.918 416.5,430.5C 414.491,433.365 412.158,436.032 409.5,438.5C 410.166,440.506 410.166,442.34 409.5,444C 410.744,444.456 411.577,443.956 412,442.5C 412.699,444.074 412.365,445.407 411,446.5C 408.057,444.777 404.89,443.777 401.5,443.5C 400.167,443.5 398.833,443.5 397.5,443.5C 395.391,442.609 393.391,441.442 391.5,440C 393.192,438.599 393.859,436.766 393.5,434.5C 399.797,429.538 405.797,424.205 411.5,418.5C 423.219,408.272 431.052,395.605 435,380.5C 435.667,366.5 435.667,352.5 435,338.5C 433.668,312.9 431.834,287.234 429.5,261.5C 430.91,257.969 430.577,254.636 428.5,251.5C 428.133,239.897 428.133,228.397 428.5,217C 425.828,197.77 422.828,178.604 419.5,159.5C 419.13,155.863 418.13,152.53 416.5,149.5C 404.761,104.581 380.094,68.4143 342.5,41C 339.198,38.4077 335.531,36.5744 331.5,35.5C 330.064,34.5714 328.731,33.4048 327.5,32C 316.004,27.3521 304.338,23.0188 292.5,19C 290.19,18.5034 287.857,18.3367 285.5,18.5C 281.361,17.4371 277.028,16.7704 272.5,16.5C 271.391,15.71 270.058,15.21 268.5,15C 248.039,13.7398 227.706,14.7398 207.5,18C 196.334,20.7213 185.334,24.0547 174.5,28C 172.247,29.7814 169.914,31.2814 167.5,32.5C 164.575,32.4598 161.909,33.2932 159.5,35C 155.856,36.8193 152.522,38.986 149.5,41.5C 143.463,44.1819 138.129,47.8486 133.5,52.5C 130.1,53.8997 127.767,56.2331 126.5,59.5C 125.448,59.3505 124.448,59.5172 123.5,60C 118.614,66.0509 113.281,71.5509 107.5,76.5C 107.577,75.2502 108.244,74.4169 109.5,74C 106.62,71.1447 103.62,69.3114 100.5,68.5C 100.5,68.1667 100.5,67.8333 100.5,67.5C 104.944,62.2679 109.61,57.2679 114.5,52.5C 116.027,52.573 117.027,51.9063 117.5,50.5C 117.833,49.5 118.5,48.8333 119.5,48.5C 121.5,48.5 122.5,47.5 122.5,45.5C 124.795,44.8645 126.461,43.5311 127.5,41.5C 128.5,40.8333 129.5,40.1667 130.5,39.5C 132.027,39.573 133.027,38.9063 133.5,37.5C 135.027,37.573 136.027,36.9063 136.5,35.5C 138.167,35.5 139.833,35.5 141.5,35.5C 141.5,34.5 141.5,33.5 141.5,32.5C 143.179,32.7148 144.179,32.0481 144.5,30.5C 145.899,29.1103 147.566,28.1103 149.5,27.5C 151.027,27.573 152.027,26.9063 152.5,25.5C 155.346,25.4484 157.68,24.4484 159.5,22.5C 161.38,22.7709 162.713,22.1042 163.5,20.5C 165.179,20.7148 166.179,20.0481 166.5,18.5C 168.993,17.2264 171.659,16.5597 174.5,16.5C 176.027,16.573 177.027,15.9063 177.5,14.5C 177.833,14.5 178.167,14.5 178.5,14.5C 180.38,14.7709 181.713,14.1042 182.5,12.5C 183.167,12.5 183.833,12.5 184.5,12.5C 187.716,12.6545 190.383,11.6545 192.5,9.5C 195.072,10.7084 197.406,10.3751 199.5,8.5C 199.842,7.66175 200.508,7.32842 201.5,7.5C 205.182,7.6653 208.848,7.49863 212.5,7C 213.056,6.61742 213.389,6.11742 213.5,5.5C 220.072,5.76101 226.406,5.09434 232.5,3.5C 253.067,1.70106 273.4,2.70106 293.5,6.5 Z"/></g>
<g><path style="opacity:1" fill="#dac96f" d="M 149.5,41.5 C 146.749,44 144.082,46.6666 141.5,49.5C 138.817,50.5103 136.151,51.5103 133.5,52.5C 138.129,47.8486 143.463,44.1819 149.5,41.5 Z"/></g>
<g><path style="opacity:1" fill="#f4f0c1" d="M 285.5,18.5 C 287.857,18.3367 290.19,18.5034 292.5,19C 304.338,23.0188 316.004,27.3521 327.5,32C 328.731,33.4048 330.064,34.5714 331.5,35.5C 330.522,35.811 329.855,36.4777 329.5,37.5C 331.316,38.8149 332.983,40.3149 334.5,42C 338.167,42.1694 340.5,44.0028 341.5,47.5C 340.833,47.5 340.167,47.5 339.5,47.5C 332.991,42.4979 326.325,37.6646 319.5,33C 316.978,31.6591 314.311,30.8257 311.5,30.5C 310.942,29.2101 309.942,28.3768 308.5,28C 300.674,25.7935 293.008,23.1268 285.5,20C 284.262,19.31 284.262,18.81 285.5,18.5 Z"/></g>
<g><path style="opacity:1" fill="#eedd7c" d="M 272.5,16.5 C 277.028,16.7704 281.361,17.4371 285.5,18.5C 284.262,18.81 284.262,19.31 285.5,20C 293.008,23.1268 300.674,25.7935 308.5,28C 309.942,28.3768 310.942,29.2101 311.5,30.5C 298.228,26.2762 285.228,21.6096 272.5,16.5 Z"/></g>
<g><path style="opacity:1" fill="#dac76b" d="M 272.5,16.5 C 258.496,16.3334 244.496,16.5001 230.5,17C 229.672,17.9147 228.672,18.5814 227.5,19C 220.167,19.6667 212.833,20.3333 205.5,21C 200.794,23.2116 195.794,24.5449 190.5,25C 190.957,25.414 191.291,25.914 191.5,26.5C 189.577,27.3078 187.577,27.8078 185.5,28C 185.833,28.3333 186.167,28.6667 186.5,29C 179.985,29.381 173.652,30.5476 167.5,32.5C 169.914,31.2814 172.247,29.7814 174.5,28C 185.334,24.0547 196.334,20.7213 207.5,18C 227.706,14.7398 248.039,13.7398 268.5,15C 270.058,15.21 271.391,15.71 272.5,16.5 Z"/></g>
<g><path style="opacity:1" fill="#bfaf64" d="M 91.5,101.5 C 90.7923,105.874 88.7923,109.54 85.5,112.5C 85.3433,111.127 85.51,109.793 86,108.5C 87.853,106.097 89.6863,103.764 91.5,101.5 Z"/></g>
<g><path style="opacity:0.161" fill="#bebdbd" d="M 72.5,111.5 C 72.7709,113.38 72.1042,114.713 70.5,115.5C 70.6596,113.847 71.3263,112.514 72.5,111.5 Z"/></g>
<g><path style="opacity:0.149" fill="#c1c1c0" d="M 70.5,115.5 C 70.7709,117.38 70.1042,118.713 68.5,119.5C 68.6596,117.847 69.3263,116.514 70.5,115.5 Z"/></g>
<g><path style="opacity:0.4" fill="#838283" d="M 416.5,115.5 C 418.379,116.895 419.379,118.895 419.5,121.5C 417.769,120.015 416.769,118.015 416.5,115.5 Z"/></g>
<g><path style="opacity:0.514" fill="#84847f" d="M 66.5,125.5 C 67.075,129.155 66.075,132.155 63.5,134.5C 64.3307,131.341 65.3307,128.341 66.5,125.5 Z"/></g>
<g><path style="opacity:0.063" fill="#d5d5d5" d="M 423.5,130.5 C 424.407,132.657 425.073,134.99 425.5,137.5C 424.883,137.389 424.383,137.056 424,136.5C 423.505,134.527 423.338,132.527 423.5,130.5 Z"/></g>
<g><path style="opacity:1" fill="#cbba66" d="M 85.5,113.5 C 84.1745,118.156 82.8411,122.823 81.5,127.5C 78.6208,134.876 75.6208,141.876 72.5,148.5C 74.1418,138.779 76.9751,129.445 81,120.5C 82.4186,118.007 83.9186,115.674 85.5,113.5 Z"/></g>
<g><path style="opacity:0.767" fill="#595959" d="M 62.5,138.5 C 62.9227,140.781 62.256,142.448 60.5,143.5C 60.4021,141.447 61.0687,139.78 62.5,138.5 Z"/></g>
<g><path style="opacity:0.612" fill="#5d5c5c" d="M 60.5,144.5 C 60.7847,147.829 60.1181,150.829 58.5,153.5C 58.2153,150.171 58.8819,147.171 60.5,144.5 Z"/></g>
<g><path style="opacity:1" fill="#8d8e79" d="M 416.5,149.5 C 418.13,152.53 419.13,155.863 419.5,159.5C 418.883,159.389 418.383,159.056 418,158.5C 417.498,155.487 416.998,152.487 416.5,149.5 Z"/></g>
<g><path style="opacity:0.443" fill="#797677" d="M 58.5,153.5 C 58.5797,156.781 57.913,159.781 56.5,162.5C 56.4203,159.219 57.087,156.219 58.5,153.5 Z"/></g>
<g><path style="opacity:1" fill="#2b1507" d="M 193.5,167.5 C 199.963,177 200.13,186.666 194,196.5C 189.522,200.935 184.522,201.602 179,198.5C 176.696,195.702 174.862,192.702 173.5,189.5C 173.334,183.824 173.501,178.157 174,172.5C 178.531,162.712 185.031,161.045 193.5,167.5 Z"/></g>
<g><path style="opacity:1" fill="#f3e2ed" d="M 178.5,167.5 C 184.997,167.18 187.164,170.18 185,176.5C 182.333,179.167 179.667,179.167 177,176.5C 176.212,173.228 176.712,170.228 178.5,167.5 Z"/></g>
<g><path style="opacity:1" fill="#2e1608" d="M 358.5,175.5 C 359.035,182.157 357.868,188.49 355,194.5C 345.665,202.543 338.665,200.876 334,189.5C 332.725,182.149 333.558,175.149 336.5,168.5C 342.546,161.85 348.713,161.85 355,168.5C 356.616,170.713 357.783,173.047 358.5,175.5 Z"/></g>
<g><path style="opacity:1" fill="#f3e3ec" d="M 338.5,168.5 C 345.628,168.706 347.294,171.873 343.5,178C 339.193,179.308 336.86,177.808 336.5,173.5C 336.437,171.486 337.103,169.819 338.5,168.5 Z"/></g>
<g><path style="opacity:1" fill="#897b3d" d="M 66.5,176.5 C 66.8772,181.453 66.2105,186.119 64.5,190.5C 64.8127,185.647 65.4794,180.98 66.5,176.5 Z"/></g>
<g><path style="opacity:0.153" fill="#7f7f7f" d="M 54.5,175.5 C 54.103,185.704 53.103,195.704 51.5,205.5C 51.6935,195.274 52.6935,185.274 54.5,175.5 Z"/></g>
<g><path style="opacity:0.078" fill="#a4a3a3" d="M 435.5,184.5 C 436.244,187.36 436.911,190.36 437.5,193.5C 437.376,194.107 437.043,194.44 436.5,194.5C 435.586,191.272 435.253,187.939 435.5,184.5 Z"/></g>
<g><path style="opacity:1" fill="#f1d76f" d="M 193.5,167.5 C 195.767,168.596 197.6,170.263 199,172.5C 199.333,178.5 199.667,184.5 200,190.5C 201.268,190.616 202.602,190.949 204,191.5C 204.129,188.997 205.129,186.997 207,185.5C 207.236,187.764 207.736,189.931 208.5,192C 207.109,193.02 205.609,193.853 204,194.5C 203.517,195.448 203.351,196.448 203.5,197.5C 206.907,196.664 210.241,195.664 213.5,194.5C 210.312,197.03 207.145,199.696 204,202.5C 202.882,206.923 204.049,210.59 207.5,213.5C 204.708,213.548 202.875,212.215 202,209.5C 201.207,205.577 201.374,201.744 202.5,198C 200.981,196.782 199.814,195.282 199,193.5C 193.532,204.108 185.699,206.274 175.5,200C 176.022,199.439 176.355,198.772 176.5,198C 174.513,195.524 173.513,192.69 173.5,189.5C 174.862,192.702 176.696,195.702 179,198.5C 184.522,201.602 189.522,200.935 194,196.5C 200.13,186.666 199.963,177 193.5,167.5 Z"/></g>
<g><path style="opacity:1" fill="#f3e2ea" d="M 187.5,190.5 C 192.159,190.015 193.492,191.848 191.5,196C 186.728,196.81 185.395,194.977 187.5,190.5 Z"/></g>
<g><path style="opacity:1" fill="#f3da6c" d="M 336.5,168.5 C 333.558,175.149 332.725,182.149 334,189.5C 338.665,200.876 345.665,202.543 355,194.5C 357.868,188.49 359.035,182.157 358.5,175.5C 359.652,180.985 359.818,186.651 359,192.5C 356.888,196.278 354.388,199.778 351.5,203C 352.888,203.889 352.722,204.389 351,204.5C 349.832,203.491 348.665,202.491 347.5,201.5C 345.556,202.189 343.556,202.689 341.5,203C 342.167,203.667 342.833,204.333 343.5,205C 341.131,205.314 338.964,206.148 337,207.5C 334.67,205.48 332.837,203.147 331.5,200.5C 330.201,202.307 330.368,203.973 332,205.5C 332.817,208.964 332.483,212.298 331,215.5C 330.667,214.833 330.333,214.167 330,213.5C 329.329,214.252 328.496,214.586 327.5,214.5C 329.463,211.482 329.963,208.149 329,204.5C 326.968,200.421 324.134,197.088 320.5,194.5C 322.722,194.178 324.556,194.845 326,196.5C 326.414,196.043 326.914,195.709 327.5,195.5C 328.243,196.908 329.077,198.241 330,199.5C 332.034,198.257 332.867,196.757 332.5,195C 331.5,194.167 330.5,193.333 329.5,192.5C 330.325,191.614 331.325,191.281 332.5,191.5C 331.307,183.817 331.307,176.151 332.5,168.5C 333.833,168.5 335.167,168.5 336.5,168.5 Z"/></g>
<g><path style="opacity:1" fill="#e2cdd1" d="M 348.5,189.5 C 350.167,189.5 351.833,189.5 353.5,189.5C 353.66,191.199 353.494,192.866 353,194.5C 348.322,195.832 346.822,194.165 348.5,189.5 Z"/></g>
<g><path style="opacity:0.145" fill="#7f7f7f" d="M 441.5,209.5 C 442.906,209.973 443.573,210.973 443.5,212.5C 442.094,212.027 441.427,211.027 441.5,209.5 Z"/></g>
<g><path style="opacity:0.004" fill="#d2d2d2" d="M 443.5,212.5 C 444.833,212.5 445.5,213.167 445.5,214.5C 444.5,214.167 443.833,213.5 443.5,212.5 Z"/></g>
<g><path style="opacity:0.635" fill="#797979" d="M 43.5,214.5 C 42.9202,216.749 41.5869,218.415 39.5,219.5C 40.0798,217.251 41.4131,215.585 43.5,214.5 Z"/></g>
<g><path style="opacity:1" fill="#5d5d5d" d="M 445.5,214.5 C 447.25,215.659 448.25,217.326 448.5,219.5C 446.241,218.656 445.241,216.989 445.5,214.5 Z"/></g>
<g><path style="opacity:1" fill="#464543" d="M 39.5,219.5 C 39.6168,221.484 38.9501,223.15 37.5,224.5C 37.7093,225.086 38.0426,225.586 38.5,226C 36.9698,227.12 35.3032,227.954 33.5,228.5C 34.7232,224.951 36.7232,221.951 39.5,219.5 Z"/></g>
<g><path style="opacity:1" fill="#3f1504" d="M 320.5,194.5 C 324.134,197.088 326.968,200.421 329,204.5C 329.963,208.149 329.463,211.482 327.5,214.5C 323.941,215.774 320.274,216.774 316.5,217.5C 317.927,220.533 317.594,223.366 315.5,226C 310.423,229.046 305.09,231.213 299.5,232.5C 284.879,234.037 270.212,234.703 255.5,234.5C 243.542,233.958 231.875,231.791 220.5,228C 214.006,225.696 211.006,221.196 211.5,214.5C 210.041,214.567 208.708,214.234 207.5,213.5C 204.049,210.59 202.882,206.923 204,202.5C 207.145,199.696 210.312,197.03 213.5,194.5C 238.946,184.692 265.279,181.858 292.5,186C 302.041,188.125 311.374,190.958 320.5,194.5 Z"/></g>
<g><path style="opacity:1" fill="#bf663b" d="M 299.5,226.5 C 301.833,226.5 304.167,226.5 306.5,226.5C 294.192,230.935 281.358,232.602 268,231.5C 260.5,231.333 253,231.167 245.5,231C 240.56,230.432 235.893,229.265 231.5,227.5C 242.006,229.735 252.673,230.735 263.5,230.5C 268.833,230.333 274.167,230.167 279.5,230C 286.364,229.163 293.03,227.996 299.5,226.5 Z"/></g>
<g><path style="opacity:1" fill="#e57037" d="M 292.5,220.5 C 292.414,221.496 292.748,222.329 293.5,223C 295.727,223.941 297.727,225.108 299.5,226.5C 293.03,227.996 286.364,229.163 279.5,230C 274.167,230.167 268.833,230.333 263.5,230.5C 252.673,230.735 242.006,229.735 231.5,227.5C 231.167,227.5 230.833,227.5 230.5,227.5C 227.983,225.265 224.983,223.765 221.5,223C 221.833,222.667 222.167,222.333 222.5,222C 245.826,221.095 269.159,220.595 292.5,220.5 Z"/></g>
<g><path style="opacity:1" fill="#ec905b" d="M 306.5,226.5 C 304.167,226.5 301.833,226.5 299.5,226.5C 297.727,225.108 295.727,223.941 293.5,223C 292.748,222.329 292.414,221.496 292.5,220.5C 292.167,219.833 291.833,219.167 291.5,218.5C 298.321,217.345 305.321,217.179 312.5,218C 314.515,219.555 314.848,221.389 313.5,223.5C 311.423,225.082 309.09,226.082 306.5,226.5 Z"/></g>
<g><path style="opacity:1" fill="#ca6b3d" d="M 291.5,218.5 C 291.833,219.167 292.167,219.833 292.5,220.5C 269.159,220.595 245.826,221.095 222.5,222C 222.167,222.333 221.833,222.667 221.5,223C 224.983,223.765 227.983,225.265 230.5,227.5C 225.042,226.68 220.042,224.68 215.5,221.5C 214.571,220.311 214.238,218.978 214.5,217.5C 223.092,218.92 231.759,219.587 240.5,219.5C 257.493,218.778 274.493,218.445 291.5,218.5 Z"/></g>
<g><path style="opacity:1" fill="#c6693b" d="M 320.5,212.5 C 321.833,212.5 323.167,212.5 324.5,212.5C 322.031,213.317 319.365,213.817 316.5,214C 292.31,214.376 268.144,215.209 244,216.5C 236.5,216.333 229,216.167 221.5,216C 216.994,215.01 212.994,213.177 209.5,210.5C 211.547,210.511 213.547,210.844 215.5,211.5C 216.672,211.081 217.672,210.415 218.5,209.5C 219.842,211.342 221.509,212.842 223.5,214C 231.5,214.167 239.5,214.333 247.5,214.5C 271.765,212.893 296.098,212.226 320.5,212.5 Z"/></g>
<g><path style="opacity:1" fill="#e47137" d="M 320.5,212.5 C 296.098,212.226 271.765,212.893 247.5,214.5C 239.5,214.333 231.5,214.167 223.5,214C 221.509,212.842 219.842,211.342 218.5,209.5C 217.672,210.415 216.672,211.081 215.5,211.5C 213.547,210.844 211.547,210.511 209.5,210.5C 205.304,206.729 205.637,203.229 210.5,200C 217.564,195.486 225.231,192.653 233.5,191.5C 242.506,190.399 251.506,189.566 260.5,189C 254.639,191.18 249.139,194.013 244,197.5C 243.439,200.298 244.606,202.131 247.5,203C 255.006,205.234 262.673,206.568 270.5,207C 288.256,206.94 305.923,208.107 323.5,210.5C 322.398,211.176 321.398,211.842 320.5,212.5 Z"/></g>
<g><path style="opacity:1" fill="#f38f58" d="M 324.5,212.5 C 323.167,212.5 321.833,212.5 320.5,212.5C 321.398,211.842 322.398,211.176 323.5,210.5C 305.923,208.107 288.256,206.94 270.5,207C 262.673,206.568 255.006,205.234 247.5,203C 244.606,202.131 243.439,200.298 244,197.5C 249.139,194.013 254.639,191.18 260.5,189C 251.506,189.566 242.506,190.399 233.5,191.5C 237.658,190.09 241.992,188.924 246.5,188C 263.932,186.848 281.265,187.514 298.5,190C 307.224,191.699 315.224,195.032 322.5,200C 326.612,203.823 327.278,207.99 324.5,212.5 Z"/></g>
<g><path style="opacity:1" fill="#c6ad5c" d="M 299.5,232.5 C 294.255,234.292 288.588,235.126 282.5,235C 273.324,235.824 264.324,235.657 255.5,234.5C 270.212,234.703 284.879,234.037 299.5,232.5 Z"/></g>
<g><path style="opacity:0.486" fill="#808080" d="M 29.5,233.5 C 29.7148,235.179 29.0481,236.179 27.5,236.5C 27.9321,235.29 28.5987,234.29 29.5,233.5 Z"/></g>
<g><path style="opacity:0.486" fill="#808080" d="M 457.5,230.5 C 458.344,232.843 459.344,235.176 460.5,237.5C 457.908,235.964 456.908,233.631 457.5,230.5 Z"/></g>
<g><path style="opacity:1" fill="#a6985c" d="M 442.5,230.5 C 441.883,230.389 441.383,230.056 441,229.5C 440.833,230.667 440.667,231.833 440.5,233C 441.318,238.471 441.652,243.971 441.5,249.5C 440.021,242.367 439.521,235.034 440,227.5C 441.417,228.078 442.25,229.078 442.5,230.5 Z"/></g>
<g><path style="opacity:0.129" fill="#999998" d="M 25.5,239.5 C 25.573,241.027 24.9063,242.027 23.5,242.5C 23.427,240.973 24.0937,239.973 25.5,239.5 Z"/></g>
<g><path style="opacity:0.737" fill="#686868" d="M 461.5,238.5 C 463.897,240.662 465.564,243.329 466.5,246.5C 463.836,244.516 462.169,241.849 461.5,238.5 Z"/></g>
<g><path style="opacity:0.243" fill="#9d9d9d" d="M 467.5,248.5 C 469.104,249.287 469.771,250.62 469.5,252.5C 468.326,251.486 467.66,250.153 467.5,248.5 Z"/></g>
<g><path style="opacity:0.2" fill="#828282" d="M 473.5,261.5 C 474.906,261.973 475.573,262.973 475.5,264.5C 474.094,264.027 473.427,263.027 473.5,261.5 Z"/></g>
<g><path style="opacity:1" fill="#fbf9c8" d="M 422.5,247.5 C 423.268,248.263 423.768,249.263 424,250.5C 424.333,254.833 424.667,259.167 425,263.5C 425.333,262.833 425.667,262.167 426,261.5C 426.436,263.847 426.936,266.181 427.5,268.5C 426.485,272.131 426.319,275.798 427,279.5C 428.562,281.957 429.562,284.624 430,287.5C 430.122,312.368 430.956,337.201 432.5,362C 432.333,366.833 432.167,371.667 432,376.5C 431.066,377.858 430.232,379.192 429.5,380.5C 430.861,373.579 431.527,366.579 431.5,359.5C 430.559,345.984 429.226,332.651 427.5,319.5C 427.666,310.494 427.5,301.494 427,292.5C 424.382,277.609 422.882,262.609 422.5,247.5 Z"/></g>
<g><path style="opacity:1" fill="#fae168" d="M 442.5,230.5 C 446.269,235.039 449.269,240.039 451.5,245.5C 454.145,252.59 457.645,259.256 462,265.5C 463.27,269.142 464.436,272.808 465.5,276.5C 467.591,281.29 469.924,285.957 472.5,290.5C 474.128,294.319 475.461,298.319 476.5,302.5C 477.524,313.181 477.524,323.848 476.5,334.5C 473.086,336.598 469.42,338.432 465.5,340C 460.512,340.087 455.512,339.92 450.5,339.5C 446.31,338.118 444.643,335.118 445.5,330.5C 445.982,309.607 444.982,288.94 442.5,268.5C 441.51,262.355 441.177,256.022 441.5,249.5C 441.652,243.971 441.318,238.471 440.5,233C 440.667,231.833 440.833,230.667 441,229.5C 441.383,230.056 441.883,230.389 442.5,230.5 Z"/></g>
<g><path style="opacity:0.816" fill="#666463" d="M 476.5,266.5 C 477.736,268.649 478.736,270.982 479.5,273.5C 477.166,271.824 476.166,269.491 476.5,266.5 Z"/></g>
<g><path style="opacity:1" fill="#f6e580" d="M 416.5,191.5 C 418.829,209.996 420.829,228.662 422.5,247.5C 422.882,262.609 424.382,277.609 427,292.5C 427.5,301.494 427.666,310.494 427.5,319.5C 426.675,307.619 425.508,295.619 424,283.5C 422.746,280.024 422.079,276.358 422,272.5C 421.86,275.043 421.194,277.377 420,279.5C 419.519,275.41 420.019,271.41 421.5,267.5C 419.684,242.142 418.017,216.809 416.5,191.5 Z"/></g>
<g><path style="opacity:1" fill="#cba14b" d="M 30.5,255.5 C 30.5,257.5 30.5,259.5 30.5,261.5C 28.5891,261.574 27.4224,262.574 27,264.5C 26.6667,267.833 26.3333,271.167 26,274.5C 24.1005,277.666 22.2672,280.666 20.5,283.5C 22.4968,275.855 24.6634,268.188 27,260.5C 27.6972,258.416 28.8639,256.749 30.5,255.5 Z"/></g>
<g><path style="opacity:0.561" fill="#656565" d="M 11.5,269.5 C 12.0102,272.388 11.3435,274.721 9.5,276.5C 10.0654,274.048 10.7321,271.715 11.5,269.5 Z"/></g>
<g><path style="opacity:1" fill="#d3c370" d="M 451.5,245.5 C 460.968,259.182 467.968,274.182 472.5,290.5C 469.924,285.957 467.591,281.29 465.5,276.5C 464.436,272.808 463.27,269.142 462,265.5C 457.645,259.256 454.145,252.59 451.5,245.5 Z"/></g>
<g><path style="opacity:1" fill="#fbf7c5" d="M 35.5,268.5 C 37.8273,268.247 39.8273,268.914 41.5,270.5C 42.7914,274.045 42.7914,277.545 41.5,281C 36.2859,282.375 33.6193,280.375 33.5,275C 33.3384,272.498 34.0051,270.331 35.5,268.5 Z"/></g>
<g><path style="opacity:0.404" fill="#6b6b6b" d="M 9.5,276.5 C 9.11791,281.744 8.11791,286.744 6.5,291.5C 6.6253,286.206 7.6253,281.206 9.5,276.5 Z"/></g>
<g><path style="opacity:1" fill="#bbae65" d="M 442.5,268.5 C 444.982,288.94 445.982,309.607 445.5,330.5C 444.503,309.989 443.503,289.322 442.5,268.5 Z"/></g>
<g><path style="opacity:0.043" fill="#c0c0c0" d="M 483.5,285.5 C 484.674,286.514 485.34,287.847 485.5,289.5C 483.896,288.713 483.229,287.38 483.5,285.5 Z"/></g>
<g><path style="opacity:0.8" fill="#5d5d5d" d="M 485.5,290.5 C 486.738,292.214 487.405,294.214 487.5,296.5C 485.72,295.01 485.054,293.01 485.5,290.5 Z"/></g>
<g><path style="opacity:0.58" fill="#6e6e6e" d="M 487.5,297.5 C 489.23,301.883 490.23,306.55 490.5,311.5C 488.656,307.138 487.656,302.471 487.5,297.5 Z"/></g>
<g><path style="opacity:0.463" fill="#7d7d7d" d="M 5.5,310.5 C 6.46138,312.265 6.79472,314.265 6.5,316.5C 5.73261,315.828 5.06594,314.995 4.5,314C 5.33663,312.989 5.66997,311.822 5.5,310.5 Z"/></g>
<g><path style="opacity:1" fill="#caba6b" d="M 476.5,302.5 C 477.953,308.267 478.62,314.267 478.5,320.5C 478.333,324.167 478.167,327.833 478,331.5C 477.768,332.737 477.268,333.737 476.5,334.5C 477.524,323.848 477.524,313.181 476.5,302.5 Z"/></g>
<g><path style="opacity:0.827" fill="#616161" d="M 6.5,321.5 C 8.38784,323.988 9.0545,326.988 8.5,330.5C 6.88195,327.829 6.21528,324.829 6.5,321.5 Z"/></g>
<g><path style="opacity:0.357" fill="#9a9a9a" d="M 8.5,330.5 C 9.93127,331.78 10.5979,333.447 10.5,335.5C 9.06873,334.22 8.40206,332.553 8.5,330.5 Z"/></g>
<g><path style="opacity:0.122" fill="#a6a6a6" d="M 489.5,332.5 C 489.405,334.786 488.738,336.786 487.5,338.5C 487.259,336.102 487.926,334.102 489.5,332.5 Z"/></g>
<g><path style="opacity:1" fill="#f7e78c" d="M 407.5,307.5 C 406.596,306.791 406.263,305.791 406.5,304.5C 404.833,304.5 403.167,304.5 401.5,304.5C 401.333,318.171 401.5,331.837 402,345.5C 404.333,348.167 406.667,348.167 409,345.5C 409.754,332.807 409.587,320.141 408.5,307.5C 409.268,308.263 409.768,309.263 410,310.5C 411.883,322.493 411.883,334.493 410,346.5C 407,349.167 404,349.167 401,346.5C 400.5,331.837 400.333,317.17 400.5,302.5C 404.931,301.53 407.265,303.197 407.5,307.5 Z"/></g>
<g><path style="opacity:1" fill="#f9fad0" d="M 407.5,307.5 C 407.833,307.5 408.167,307.5 408.5,307.5C 409.587,320.141 409.754,332.807 409,345.5C 406.667,348.167 404.333,348.167 402,345.5C 401.5,331.837 401.333,318.171 401.5,304.5C 403.167,304.5 404.833,304.5 406.5,304.5C 406.263,305.791 406.596,306.791 407.5,307.5 Z"/></g>
<g><path style="opacity:0.678" fill="#5f5f5f" d="M 11.5,337.5 C 14.7046,338.13 16.3712,340.13 16.5,343.5C 14.8437,341.54 13.177,339.54 11.5,337.5 Z"/></g>
<g><path style="opacity:1" fill="#d0c174" d="M 476.5,334.5 C 469.229,343.098 460.562,344.765 450.5,339.5C 455.512,339.92 460.512,340.087 465.5,340C 469.42,338.432 473.086,336.598 476.5,334.5 Z"/></g>
<g><path style="opacity:0.004" fill="#ccc8c8" d="M 479.5,349.5 C 478.486,350.674 477.153,351.34 475.5,351.5C 476.287,349.896 477.62,349.229 479.5,349.5 Z"/></g>
<g><path style="opacity:0.373" fill="#888888" d="M 30.5,356.5 C 32.0269,356.427 33.0269,357.094 33.5,358.5C 31.9731,358.573 30.9731,357.906 30.5,356.5 Z"/></g>
<g><path style="opacity:0.043" fill="#a1a1a1" d="M 33.5,358.5 C 35.8984,358.259 37.8984,358.926 39.5,360.5C 37.1016,360.741 35.1016,360.074 33.5,358.5 Z"/></g>
<g><path style="opacity:1" fill="#c8a04d" d="M 85.5,351.5 C 84.8908,356.776 81.8908,359.776 76.5,360.5C 75.5853,361.328 74.9186,362.328 74.5,363.5C 70.8261,364.233 67.1594,364.899 63.5,365.5C 62.343,372.916 62.843,380.25 65,387.5C 67.8268,395.587 71.3268,403.254 75.5,410.5C 72.6422,407.796 70.3089,404.629 68.5,401C 63.2114,389.117 60.5448,376.617 60.5,363.5C 70.3496,362.556 78.683,358.556 85.5,351.5 Z"/></g>
<g><path style="opacity:1" fill="#e6b040" d="M 30.5,261.5 C 28.4399,268.907 26.7733,276.407 25.5,284C 25.8446,289.901 26.6779,295.735 28,301.5C 32.8621,311.359 40.0288,318.859 49.5,324C 57.1842,326.574 64.5176,325.908 71.5,322C 76.1377,316.692 80.8044,311.359 85.5,306C 88.5096,303.778 91.0096,304.278 93,307.5C 93.0973,348.057 107.931,381.724 137.5,408.5C 147.29,414.394 157.623,419.227 168.5,423C 195.58,430.135 222.913,436.135 250.5,441C 283.553,443.159 316.553,442.492 349.5,439C 381.324,434.184 406.158,418.35 424,391.5C 424.69,390.262 425.19,390.262 425.5,391.5C 422.925,395.881 420.925,400.548 419.5,405.5C 413.629,411.204 408.296,417.371 403.5,424C 395.317,430.589 386.65,436.422 377.5,441.5C 369.311,445.386 360.644,448.053 351.5,449.5C 329.833,450.167 308.167,450.833 286.5,451.5C 271.005,450.669 255.339,450.169 239.5,450C 220.496,448.319 201.496,446.986 182.5,446C 181.833,445.333 181.167,444.667 180.5,444C 169.533,442.791 158.533,442.291 147.5,442.5C 146.609,441.89 145.609,441.557 144.5,441.5C 142.852,440.073 140.852,439.24 138.5,439C 132.725,438.586 127.058,437.586 121.5,436C 113.748,432.14 105.748,428.973 97.5,426.5C 91.3949,424.573 85.7282,421.907 80.5,418.5C 79.3531,415.546 77.6865,412.88 75.5,410.5C 71.3268,403.254 67.8268,395.587 65,387.5C 62.843,380.25 62.343,372.916 63.5,365.5C 67.1594,364.899 70.8261,364.233 74.5,363.5C 74.9186,362.328 75.5853,361.328 76.5,360.5C 81.8908,359.776 84.8908,356.776 85.5,351.5C 88.1288,348.369 90.9621,345.369 94,342.5C 95.8215,335.662 93.3215,333.162 86.5,335C 83.9774,336.36 81.9774,338.193 80.5,340.5C 78.9582,341.301 77.2915,341.634 75.5,341.5C 75.5,342.5 75.5,343.5 75.5,344.5C 74.1667,344.5 72.8333,344.5 71.5,344.5C 71.5,345.5 71.5,346.5 71.5,347.5C 70.1667,347.5 68.8333,347.5 67.5,347.5C 67.5,348.5 67.5,349.5 67.5,350.5C 57.1578,351.76 47.4911,349.927 38.5,345C 37.6634,343.989 37.33,342.822 37.5,341.5C 35.8333,341.5 34.1667,341.5 32.5,341.5C 32.5,340.5 32.5,339.5 32.5,338.5C 30.079,338.122 27.7457,337.455 25.5,336.5C 24.2498,334.068 22.7498,331.734 21,329.5C 17.1626,314.743 16.496,299.743 19,284.5C 19.3826,283.944 19.8826,283.611 20.5,283.5C 22.2672,280.666 24.1005,277.666 26,274.5C 26.3333,271.167 26.6667,267.833 27,264.5C 27.4224,262.574 28.5891,261.574 30.5,261.5 Z"/></g>
<g><path style="opacity:0.494" fill="#7a797a" d="M 447.5,361.5 C 448.124,361.917 448.457,362.584 448.5,363.5C 447.909,369.985 447.243,376.319 446.5,382.5C 446.28,375.457 446.614,368.457 447.5,361.5 Z"/></g>
<g><path style="opacity:0.873" fill="#6f6b70" d="M 44.5,363.5 C 46.1667,363.5 47.8333,363.5 49.5,363.5C 50.1727,372.861 51.1727,382.195 52.5,391.5C 51.079,387.008 49.9123,382.341 49,377.5C 48.501,373.179 48.3343,368.846 48.5,364.5C 46.901,364.768 45.5676,364.434 44.5,363.5 Z"/></g>
<g><path style="opacity:0.176" fill="#888788" d="M 443.5,392.5 C 443.737,393.791 443.404,394.791 442.5,395.5C 442.586,394.504 442.252,393.671 441.5,393C 442.094,392.536 442.761,392.369 443.5,392.5 Z"/></g>
<g><path style="opacity:0.541" fill="#6c6a6b" d="M 53.5,395.5 C 55.9754,396.687 56.9754,398.687 56.5,401.5C 54.7549,399.967 53.7549,397.967 53.5,395.5 Z"/></g>
<g><path style="opacity:0.145" fill="#868385" d="M 441.5,398.5 C 440.737,400.368 439.737,402.035 438.5,403.5C 437.916,400.715 438.916,399.048 441.5,398.5 Z"/></g>
<g><path style="opacity:0.004" fill="#d3d2d2" d="M 62.5,413.5 C 63.5,413.833 64.1667,414.5 64.5,415.5C 63.1667,415.5 62.5,414.833 62.5,413.5 Z"/></g>
<g><path style="opacity:0.592" fill="#5d5d5d" d="M 68.5,421.5 C 71.142,421.488 72.4754,422.821 72.5,425.5C 70.8333,424.5 69.5,423.167 68.5,421.5 Z"/></g>
<g><path style="opacity:1" fill="#e5d3a3" d="M 419.5,405.5 C 416.833,409.833 414.167,414.167 411.5,418.5C 405.797,424.205 399.797,429.538 393.5,434.5C 388.167,436.833 382.833,439.167 377.5,441.5C 386.65,436.422 395.317,430.589 403.5,424C 408.296,417.371 413.629,411.204 419.5,405.5 Z"/></g>
<g><path style="opacity:0.122" fill="#8d8d8d" d="M 425.5,422.5 C 422.486,425.246 419.486,427.913 416.5,430.5C 418.232,427.918 420.232,425.418 422.5,423C 423.448,422.517 424.448,422.351 425.5,422.5 Z"/></g>
<g><path style="opacity:1" fill="#c59d4f" d="M 97.5,426.5 C 105.748,428.973 113.748,432.14 121.5,436C 127.058,437.586 132.725,438.586 138.5,439C 140.852,439.24 142.852,440.073 144.5,441.5C 135.743,440.654 127.077,439.154 118.5,437C 111.119,433.976 104.119,430.476 97.5,426.5 Z"/></g>
<g><path style="opacity:0.153" fill="#979797" d="M 84.5,433.5 C 86.8477,433.592 88.5144,434.592 89.5,436.5C 87.326,436.25 85.6594,435.25 84.5,433.5 Z"/></g>
<g><path style="opacity:0.125" fill="#b5b5b5" d="M 93.5,438.5 C 95.153,438.66 96.4863,439.326 97.5,440.5C 95.6203,440.771 94.287,440.104 93.5,438.5 Z"/></g>
<g><path style="opacity:0.999" fill="#100c0b" d="M 100.5,68.5 C 103.62,69.3114 106.62,71.1447 109.5,74C 108.244,74.4169 107.577,75.2502 107.5,76.5C 104.229,79.7473 101.395,83.4139 99,87.5C 96.2334,92.0798 93.7334,96.7464 91.5,101.5C 89.6863,103.764 87.853,106.097 86,108.5C 85.51,109.793 85.3433,111.127 85.5,112.5C 85.5,112.833 85.5,113.167 85.5,113.5C 83.9186,115.674 82.4186,118.007 81,120.5C 76.9751,129.445 74.1418,138.779 72.5,148.5C 71.3995,150.277 70.5662,152.277 70,154.5C 68.8238,161.938 67.6571,169.271 66.5,176.5C 65.4794,180.98 64.8127,185.647 64.5,190.5C 65.3362,198.241 64.1695,205.575 61,212.5C 52.9555,221.542 45.2888,230.876 38,240.5C 35.3917,245.522 32.8917,250.522 30.5,255.5C 28.8639,256.749 27.6972,258.416 27,260.5C 24.6634,268.188 22.4968,275.855 20.5,283.5C 19.8826,283.611 19.3826,283.944 19,284.5C 16.496,299.743 17.1626,314.743 21,329.5C 22.7498,331.734 24.2498,334.068 25.5,336.5C 39.5297,353.74 56.1963,356.906 75.5,346C 77.1944,344.065 78.8611,342.231 80.5,340.5C 81.9774,338.193 83.9774,336.36 86.5,335C 93.3215,333.162 95.8215,335.662 94,342.5C 90.9621,345.369 88.1288,348.369 85.5,351.5C 78.683,358.556 70.3496,362.556 60.5,363.5C 60.5448,376.617 63.2114,389.117 68.5,401C 70.3089,404.629 72.6422,407.796 75.5,410.5C 77.6865,412.88 79.3531,415.546 80.5,418.5C 85.7282,421.907 91.3949,424.573 97.5,426.5C 104.119,430.476 111.119,433.976 118.5,437C 127.077,439.154 135.743,440.654 144.5,441.5C 145.609,441.557 146.609,441.89 147.5,442.5C 159.826,443.837 172.16,445.504 184.5,447.5C 195.487,448.215 206.487,449.215 217.5,450.5C 224.123,451.38 230.789,451.713 237.5,451.5C 260.157,452.406 282.823,453.073 305.5,453.5C 307.389,453.564 309.056,453.064 310.5,452C 323.833,451.667 337.167,451.333 350.5,451C 351.056,450.617 351.389,450.117 351.5,449.5C 360.644,448.053 369.311,445.386 377.5,441.5C 382.833,439.167 388.167,436.833 393.5,434.5C 393.859,436.766 393.192,438.599 391.5,440C 393.391,441.442 395.391,442.609 397.5,443.5C 397.167,444.167 396.833,444.833 396.5,445.5C 385.083,450.538 373.416,455.038 361.5,459C 344.323,462.181 326.989,464.014 309.5,464.5C 309.855,465.522 310.522,466.189 311.5,466.5C 321.305,475.737 332.638,482.404 345.5,486.5C 346.6,487.558 347.934,488.392 349.5,489C 353.5,489.667 357.5,489.667 361.5,489C 362.77,486.374 362.104,484.207 359.5,482.5C 358.534,480.604 358.201,478.604 358.5,476.5C 358.842,475.662 359.508,475.328 360.5,475.5C 362.199,475.34 363.866,475.506 365.5,476C 370.415,478.575 375.081,481.575 379.5,485C 384.489,485.499 389.489,485.666 394.5,485.5C 394.628,479.487 394.628,473.487 394.5,467.5C 400.758,468.306 406.925,469.639 413,471.5C 413.765,471.43 414.265,471.097 414.5,470.5C 414.833,470.5 415.167,470.5 415.5,470.5C 417.849,470.542 419.182,469.375 419.5,467C 418.86,464.88 417.86,463.046 416.5,461.5C 415.154,459.463 413.82,457.463 412.5,455.5C 411.5,453.167 409.833,451.5 407.5,450.5C 405.626,448.187 403.626,445.854 401.5,443.5C 404.89,443.777 408.057,444.777 411,446.5C 412.365,445.407 412.699,444.074 412,442.5C 411.577,443.956 410.744,444.456 409.5,444C 410.166,442.34 410.166,440.506 409.5,438.5C 411.5,439.833 413.167,441.5 414.5,443.5C 414.833,444.5 415.5,445.167 416.5,445.5C 418.144,445.81 419.144,446.81 419.5,448.5C 420.08,450.749 421.413,452.415 423.5,453.5C 424.338,453.842 424.672,454.508 424.5,455.5C 424.427,457.027 425.094,458.027 426.5,458.5C 428.163,460.438 428.829,462.772 428.5,465.5C 428.242,467.81 428.242,469.81 428.5,471.5C 426.535,478.434 421.868,481.434 414.5,480.5C 411.467,480.331 408.467,479.998 405.5,479.5C 405.969,484.773 404.303,489.107 400.5,492.5C 398.973,492.427 397.973,493.094 397.5,494.5C 396.994,496.105 396.327,496.439 395.5,495.5C 391.749,495.317 387.749,495.317 383.5,495.5C 380.327,494.958 377.327,493.958 374.5,492.5C 373.779,490.618 372.779,490.285 371.5,491.5C 371.672,492.492 371.338,493.158 370.5,493.5C 368.833,493.5 367.167,493.5 365.5,493.5C 365.635,495.554 364.968,497.221 363.5,498.5C 362.432,499.434 361.099,499.768 359.5,499.5C 355.733,498.205 351.733,497.539 347.5,497.5C 341.891,496.532 336.558,494.698 331.5,492C 324.01,487.42 316.676,482.587 309.5,477.5C 309.573,475.973 308.906,474.973 307.5,474.5C 302.79,472.629 299.124,469.463 296.5,465C 292.661,464.998 288.828,465.165 285,465.5C 282.563,463.751 280.063,463.085 277.5,463.5C 269.833,463.5 262.167,463.5 254.5,463.5C 246.288,464.727 237.954,464.727 229.5,463.5C 227.169,462.683 224.669,462.016 222,461.5C 220.775,461.862 219.609,462.362 218.5,463C 219.171,463.986 219.171,465.153 218.5,466.5C 205.331,480.175 190.331,491.342 173.5,500C 166.62,502.05 159.62,502.716 152.5,502C 149.064,500.726 146.397,498.559 144.5,495.5C 143.947,493.448 142.947,493.115 141.5,494.5C 135.13,497.857 128.463,498.357 121.5,496C 120.619,495.292 119.953,494.458 119.5,493.5C 119.027,492.094 118.027,491.427 116.5,491.5C 115.662,491.158 115.328,490.492 115.5,489.5C 115.573,487.973 114.906,486.973 113.5,486.5C 112.698,485.048 112.198,483.382 112,481.5C 110.989,482.337 109.822,482.67 108.5,482.5C 104.007,482.731 99.6737,482.064 95.5,480.5C 94.3599,478.22 93.1932,475.886 92,473.5C 91.5845,469.152 91.7512,464.819 92.5,460.5C 94.1327,453.739 97.466,447.906 102.5,443C 100.347,442.901 98.6808,442.067 97.5,440.5C 96.4863,439.326 95.153,438.66 93.5,438.5C 91.847,438.34 90.5137,437.674 89.5,436.5C 88.5144,434.592 86.8477,433.592 84.5,433.5C 79.8033,431.822 75.8033,429.156 72.5,425.5C 72.4754,422.821 71.142,421.488 68.5,421.5C 66.1782,420.198 64.8449,418.198 64.5,415.5C 64.1667,414.5 63.5,413.833 62.5,413.5C 59.4598,410.086 57.4598,406.086 56.5,401.5C 56.9754,398.687 55.9754,396.687 53.5,395.5C 52.5655,394.432 52.2322,393.099 52.5,391.5C 51.1727,382.195 50.1727,372.861 49.5,363.5C 47.8333,363.5 46.1667,363.5 44.5,363.5C 42.7392,362.687 41.0725,361.687 39.5,360.5C 37.8984,358.926 35.8984,358.259 33.5,358.5C 33.0269,357.094 32.0269,356.427 30.5,356.5C 28.2433,356.038 26.2433,355.038 24.5,353.5C 21.075,350.745 18.4084,347.412 16.5,343.5C 16.3712,340.13 14.7046,338.13 11.5,337.5C 10.6618,337.158 10.3284,336.492 10.5,335.5C 10.5979,333.447 9.93127,331.78 8.5,330.5C 9.0545,326.988 8.38784,323.988 6.5,321.5C 6.5,319.833 6.5,318.167 6.5,316.5C 6.79472,314.265 6.46138,312.265 5.5,310.5C 4.8367,308.359 4.50337,306.025 4.5,303.5C 4.41092,299.239 5.07759,295.239 6.5,291.5C 8.11791,286.744 9.11791,281.744 9.5,276.5C 11.3435,274.721 12.0102,272.388 11.5,269.5C 14.1563,259.825 18.1563,250.825 23.5,242.5C 24.9063,242.027 25.573,241.027 25.5,239.5C 25.427,237.973 26.0937,236.973 27.5,236.5C 29.0481,236.179 29.7148,235.179 29.5,233.5C 30.1447,231.174 31.478,229.507 33.5,228.5C 35.3032,227.954 36.9698,227.12 38.5,226C 38.0426,225.586 37.7093,225.086 37.5,224.5C 38.9501,223.15 39.6168,221.484 39.5,219.5C 41.5869,218.415 42.9202,216.749 43.5,214.5C 45.6801,211.074 48.3467,208.074 51.5,205.5C 53.103,195.704 54.103,185.704 54.5,175.5C 54.335,172.15 54.5017,168.817 55,165.5C 55.2321,164.263 55.7321,163.263 56.5,162.5C 57.913,159.781 58.5797,156.781 58.5,153.5C 60.1181,150.829 60.7847,147.829 60.5,144.5C 60.5,144.167 60.5,143.833 60.5,143.5C 62.256,142.448 62.9227,140.781 62.5,138.5C 62.2322,136.901 62.5655,135.568 63.5,134.5C 66.075,132.155 67.075,129.155 66.5,125.5C 66.595,123.214 67.2616,121.214 68.5,119.5C 70.1042,118.713 70.7709,117.38 70.5,115.5C 72.1042,114.713 72.7709,113.38 72.5,111.5C 73.4076,108.013 75.0743,105.013 77.5,102.5C 79.2939,100.572 80.2939,98.2384 80.5,95.5C 82.4726,91.543 84.8059,87.8763 87.5,84.5C 88.9063,84.0269 89.573,83.0269 89.5,81.5C 89.3284,80.5084 89.6618,79.8417 90.5,79.5C 91.8195,78.0582 93.4862,77.3915 95.5,77.5C 96.0488,75.0987 96.8822,72.7654 98,70.5C 98.7083,69.6195 99.5416,68.9528 100.5,68.5 Z"/></g>
<g><path style="opacity:1" fill="#c79e4c" d="M 25.5,336.5 C 27.7457,337.455 30.079,338.122 32.5,338.5C 32.5,339.5 32.5,340.5 32.5,341.5C 34.1667,341.5 35.8333,341.5 37.5,341.5C 37.33,342.822 37.6634,343.989 38.5,345C 47.4911,349.927 57.1578,351.76 67.5,350.5C 67.5,349.5 67.5,348.5 67.5,347.5C 68.8333,347.5 70.1667,347.5 71.5,347.5C 71.5,346.5 71.5,345.5 71.5,344.5C 72.8333,344.5 74.1667,344.5 75.5,344.5C 75.5,343.5 75.5,342.5 75.5,341.5C 77.2915,341.634 78.9582,341.301 80.5,340.5C 78.8611,342.231 77.1944,344.065 75.5,346C 56.1963,356.906 39.5297,353.74 25.5,336.5 Z"/></g>
<g><path style="opacity:0.004" fill="#c8c8ca" d="M 414.5,443.5 C 415.833,443.5 416.5,444.167 416.5,445.5C 415.5,445.167 414.833,444.5 414.5,443.5 Z"/></g>
<g><path style="opacity:1" fill="#ac894b" d="M 184.5,447.5 C 195.818,446.84 206.818,447.84 217.5,450.5C 206.487,449.215 195.487,448.215 184.5,447.5 Z"/></g>
<g><path style="opacity:0.278" fill="#a19e9c" d="M 419.5,448.5 C 421.587,449.585 422.92,451.251 423.5,453.5C 421.413,452.415 420.08,450.749 419.5,448.5 Z"/></g>
<g><path style="opacity:1" fill="#d5a750" d="M 147.5,442.5 C 158.533,442.291 169.533,442.791 180.5,444C 181.167,444.667 181.833,445.333 182.5,446C 201.496,446.986 220.496,448.319 239.5,450C 255.339,450.169 271.005,450.669 286.5,451.5C 270.167,451.5 253.833,451.5 237.5,451.5C 230.789,451.713 224.123,451.38 217.5,450.5C 206.818,447.84 195.818,446.84 184.5,447.5C 172.16,445.504 159.826,443.837 147.5,442.5 Z"/></g>
<g><path style="opacity:1" fill="#a78542" d="M 351.5,449.5 C 351.389,450.117 351.056,450.617 350.5,451C 337.167,451.333 323.833,451.667 310.5,452C 309.056,453.064 307.389,453.564 305.5,453.5C 282.823,453.073 260.157,452.406 237.5,451.5C 253.833,451.5 270.167,451.5 286.5,451.5C 308.167,450.833 329.833,450.167 351.5,449.5 Z"/></g>
<g><path style="opacity:1" fill="#de7132" d="M 142.5,454.5 C 142.833,454.5 143.167,454.5 143.5,454.5C 144.152,455.725 145.319,456.392 147,456.5C 165.296,459.487 183.796,461.487 202.5,462.5C 202.657,463.873 202.49,465.207 202,466.5C 200.198,467.789 199.031,469.456 198.5,471.5C 191.663,477.999 183.997,483.333 175.5,487.5C 168.385,489.752 161.051,490.752 153.5,490.5C 153.277,487.886 154.444,486.219 157,485.5C 157.667,483.167 157.667,480.833 157,478.5C 156.329,477.748 155.496,477.414 154.5,477.5C 149.99,475.519 146.324,476.686 143.5,481C 140.554,481.806 137.888,483.139 135.5,485C 129.901,486.499 126.067,484.665 124,479.5C 123.682,475.805 123.182,472.138 122.5,468.5C 123.547,466.944 124.214,465.277 124.5,463.5C 120.916,464.546 117.25,465.379 113.5,466C 112.833,467 112.167,468 111.5,469C 108.377,470.721 105.044,471.888 101.5,472.5C 101.674,469.126 102.174,465.793 103,462.5C 104.871,461.003 105.871,459.003 106,456.5C 108.07,454.151 110.237,451.984 112.5,450C 122.404,451.826 132.404,453.326 142.5,454.5 Z"/></g>
<g><path style="opacity:1" fill="#f4edc6" d="M 407.5,450.5 C 409.833,451.5 411.5,453.167 412.5,455.5C 411.01,457.28 409.01,457.946 406.5,457.5C 406.5,455.833 406.5,454.167 406.5,452.5C 406.833,451.833 407.167,451.167 407.5,450.5 Z"/></g>
<g><path style="opacity:1" fill="#c26c3b" d="M 396.5,445.5 C 392.74,447.424 389.74,450.257 387.5,454C 385.527,454.495 383.527,454.662 381.5,454.5C 381.5,455.5 381.5,456.5 381.5,457.5C 378.813,457.336 376.146,457.503 373.5,458C 369.797,459.209 366.13,460.542 362.5,462C 345.933,464.072 329.266,465.072 312.5,465C 311.944,465.383 311.611,465.883 311.5,466.5C 310.522,466.189 309.855,465.522 309.5,464.5C 326.989,464.014 344.323,462.181 361.5,459C 373.416,455.038 385.083,450.538 396.5,445.5 Z"/></g>
<g><path style="opacity:1" fill="#e2a974" d="M 406.5,452.5 C 406.5,454.167 406.5,455.833 406.5,457.5C 409.01,457.946 411.01,457.28 412.5,455.5C 413.82,457.463 415.154,459.463 416.5,461.5C 416.511,463.547 416.844,465.547 417.5,467.5C 417.058,468.739 416.391,469.739 415.5,470.5C 415.167,470.5 414.833,470.5 414.5,470.5C 413.677,467.023 413.177,463.356 413,459.5C 410.959,458.577 408.792,458.244 406.5,458.5C 406.5,459.5 406.5,460.5 406.5,461.5C 405.022,461.762 403.689,461.429 402.5,460.5C 404.605,458.164 405.938,455.497 406.5,452.5 Z"/></g>
<g><path style="opacity:0.082" fill="#b8afae" d="M 424.5,455.5 C 425.906,455.973 426.573,456.973 426.5,458.5C 425.094,458.027 424.427,457.027 424.5,455.5 Z"/></g>
<g><path style="opacity:1" fill="#8d5233" d="M 171.5,457.5 C 176.37,457.69 181.036,458.356 185.5,459.5C 181.154,459.666 176.821,459.499 172.5,459C 171.944,458.617 171.611,458.117 171.5,457.5 Z"/></g>
<g><path style="opacity:1" fill="#be6b40" d="M 143.5,454.5 C 152.849,455.501 162.183,456.501 171.5,457.5C 171.611,458.117 171.944,458.617 172.5,459C 176.821,459.499 181.154,459.666 185.5,459.5C 193.187,459.46 200.854,459.793 208.5,460.5C 205.944,464.729 202.611,468.396 198.5,471.5C 199.031,469.456 200.198,467.789 202,466.5C 202.49,465.207 202.657,463.873 202.5,462.5C 183.796,461.487 165.296,459.487 147,456.5C 145.319,456.392 144.152,455.725 143.5,454.5 Z"/></g>
<g><path style="opacity:1" fill="#ae653f" d="M 142.5,454.5 C 132.404,453.326 122.404,451.826 112.5,450C 110.237,451.984 108.07,454.151 106,456.5C 105.871,459.003 104.871,461.003 103,462.5C 102.174,465.793 101.674,469.126 101.5,472.5C 100.042,467.779 100.542,463.113 103,458.5C 105.809,454.39 108.975,450.557 112.5,447C 115.493,447.553 118.493,448.553 121.5,450C 128.152,451.093 134.819,452.093 141.5,453C 142.056,453.383 142.389,453.883 142.5,454.5 Z"/></g>
<g><path style="opacity:0.224" fill="#878386" d="M 229.5,463.5 C 225.25,462.919 221.584,463.919 218.5,466.5C 219.171,465.153 219.171,463.986 218.5,463C 219.609,462.362 220.775,461.862 222,461.5C 224.669,462.016 227.169,462.683 229.5,463.5 Z"/></g>
<g><path style="opacity:0.051" fill="#7b787b" d="M 254.5,463.5 C 262.167,463.5 269.833,463.5 277.5,463.5C 276.469,464.249 275.302,464.915 274,465.5C 267.401,464.85 260.901,464.184 254.5,463.5 Z"/></g>
<g><path style="opacity:1" fill="#dc7133" d="M 397.5,443.5 C 398.833,443.5 400.167,443.5 401.5,443.5C 403.626,445.854 405.626,448.187 407.5,450.5C 407.167,451.167 406.833,451.833 406.5,452.5C 405.938,455.497 404.605,458.164 402.5,460.5C 403.689,461.429 405.022,461.762 406.5,461.5C 406.5,460.5 406.5,459.5 406.5,458.5C 408.792,458.244 410.959,458.577 413,459.5C 413.177,463.356 413.677,467.023 414.5,470.5C 414.265,471.097 413.765,471.43 413,471.5C 406.925,469.639 400.758,468.306 394.5,467.5C 392.879,467.787 391.879,468.787 391.5,470.5C 396.722,482.773 393.055,486.94 380.5,483C 376.195,480.844 372.195,478.177 368.5,475C 365.633,474.199 362.966,474.366 360.5,475.5C 359.508,475.328 358.842,475.662 358.5,476.5C 357.275,477.152 356.608,478.319 356.5,480C 357.497,482.833 358.497,485.666 359.5,488.5C 354.681,488.648 350.015,487.982 345.5,486.5C 332.638,482.404 321.305,475.737 311.5,466.5C 311.611,465.883 311.944,465.383 312.5,465C 329.266,465.072 345.933,464.072 362.5,462C 366.13,460.542 369.797,459.209 373.5,458C 376.146,457.503 378.813,457.336 381.5,457.5C 381.5,456.5 381.5,455.5 381.5,454.5C 383.527,454.662 385.527,454.495 387.5,454C 389.74,450.257 392.74,447.424 396.5,445.5C 396.833,444.833 397.167,444.167 397.5,443.5 Z"/></g>
<g><path style="opacity:0.725" fill="#7a7a7a" d="M 92.5,460.5 C 91.7512,464.819 91.5845,469.152 92,473.5C 93.1932,475.886 94.3599,478.22 95.5,480.5C 93.5491,479.284 92.0491,477.618 91,475.5C 90.3333,471.5 90.3333,467.5 91,463.5C 91.2321,462.263 91.7321,461.263 92.5,460.5 Z"/></g>
<g><path style="opacity:1" fill="#9e6545" d="M 416.5,461.5 C 417.86,463.046 418.86,464.88 419.5,467C 419.182,469.375 417.849,470.542 415.5,470.5C 416.391,469.739 417.058,468.739 417.5,467.5C 416.844,465.547 416.511,463.547 416.5,461.5 Z"/></g>
<g><path style="opacity:0.078" fill="#c8c8c7" d="M 428.5,465.5 C 429.833,467.5 429.833,469.5 428.5,471.5C 428.242,469.81 428.242,467.81 428.5,465.5 Z"/></g>
<g><path style="opacity:0.016" fill="#b2b1af" d="M 307.5,474.5 C 308.906,474.973 309.573,475.973 309.5,477.5C 308.094,477.027 307.427,476.027 307.5,474.5 Z"/></g>
<g><path style="opacity:0.412" fill="#7b797a" d="M 95.5,480.5 C 99.6737,482.064 104.007,482.731 108.5,482.5C 105.696,483.638 102.696,483.805 99.5,483C 97.6803,482.8 96.347,481.966 95.5,480.5 Z"/></g>
<g><path style="opacity:1" fill="#b16842" d="M 394.5,467.5 C 394.628,473.487 394.628,479.487 394.5,485.5C 389.489,485.666 384.489,485.499 379.5,485C 375.081,481.575 370.415,478.575 365.5,476C 363.866,475.506 362.199,475.34 360.5,475.5C 362.966,474.366 365.633,474.199 368.5,475C 372.195,478.177 376.195,480.844 380.5,483C 393.055,486.94 396.722,482.773 391.5,470.5C 391.879,468.787 392.879,467.787 394.5,467.5 Z"/></g>
<g><path style="opacity:1" fill="#b86940" d="M 154.5,477.5 C 150.34,477.164 147.007,478.664 144.5,482C 140.148,484.677 135.482,486.511 130.5,487.5C 128.291,487.431 126.291,486.764 124.5,485.5C 122.509,480.715 121.342,475.715 121,470.5C 118.847,468.556 116.347,468.056 113.5,469C 110.146,472.957 106.146,474.124 101.5,472.5C 105.044,471.888 108.377,470.721 111.5,469C 112.167,468 112.833,467 113.5,466C 117.25,465.379 120.916,464.546 124.5,463.5C 124.214,465.277 123.547,466.944 122.5,468.5C 123.182,472.138 123.682,475.805 124,479.5C 126.067,484.665 129.901,486.499 135.5,485C 137.888,483.139 140.554,481.806 143.5,481C 146.324,476.686 149.99,475.519 154.5,477.5 Z"/></g>
<g><path style="opacity:1" fill="#a5603b" d="M 358.5,476.5 C 358.201,478.604 358.534,480.604 359.5,482.5C 362.104,484.207 362.77,486.374 361.5,489C 357.5,489.667 353.5,489.667 349.5,489C 347.934,488.392 346.6,487.558 345.5,486.5C 350.015,487.982 354.681,488.648 359.5,488.5C 358.497,485.666 357.497,482.833 356.5,480C 356.608,478.319 357.275,477.152 358.5,476.5 Z"/></g>
<g><path style="opacity:0.016" fill="#bfbfbf" d="M 113.5,486.5 C 114.906,486.973 115.573,487.973 115.5,489.5C 114.094,489.027 113.427,488.027 113.5,486.5 Z"/></g>
<g><path style="opacity:1" fill="#b1673f" d="M 154.5,477.5 C 155.496,477.414 156.329,477.748 157,478.5C 157.667,480.833 157.667,483.167 157,485.5C 154.444,486.219 153.277,487.886 153.5,490.5C 161.051,490.752 168.385,489.752 175.5,487.5C 168.828,491.602 161.495,493.102 153.5,492C 152.903,490.938 152.57,489.772 152.5,488.5C 153.401,485.929 154.734,483.596 156.5,481.5C 155.82,480.14 155.153,478.807 154.5,477.5 Z"/></g>
<g><path style="opacity:0.047" fill="#c8c6c6" d="M 371.5,491.5 C 372.779,490.285 373.779,490.618 374.5,492.5C 373.391,492.443 372.391,492.11 371.5,491.5 Z"/></g>
<g><path style="opacity:0.176" fill="#9a9b9f" d="M 116.5,491.5 C 118.027,491.427 119.027,492.094 119.5,493.5C 117.973,493.573 116.973,492.906 116.5,491.5 Z"/></g>
<g><path style="opacity:0.983" fill="#525456" d="M 370.5,493.5 C 368.715,495.954 366.382,497.621 363.5,498.5C 364.968,497.221 365.635,495.554 365.5,493.5C 367.167,493.5 368.833,493.5 370.5,493.5 Z"/></g>
<g><path style="opacity:0.004" fill="#dfd9d9" d="M 400.5,492.5 C 400.027,493.906 399.027,494.573 397.5,494.5C 397.973,493.094 398.973,492.427 400.5,492.5 Z"/></g>
<g><path style="opacity:0.043" fill="#b8acb7" d="M 141.5,494.5 C 142.947,493.115 143.947,493.448 144.5,495.5C 143.609,494.89 142.609,494.557 141.5,494.5 Z"/></g>
<g><path style="opacity:0.071" fill="#b2b7b7" d="M 395.5,495.5 C 391.399,496.791 387.399,496.791 383.5,495.5C 387.749,495.317 391.749,495.317 395.5,495.5 Z"/></g>
<g><path style="opacity:0.125" fill="#8d8d8d" d="M 347.5,497.5 C 351.733,497.539 355.733,498.205 359.5,499.5C 355.236,499.656 351.236,498.989 347.5,497.5 Z"/></g>
</svg>
